<?xml version="1.0" encoding="utf-8"?>
<!-- Generator: Adobe Illustrator 19.0.0, SVG Export Plug-In . SVG Version: 6.00 Build 0)  -->
<svg version="1.1" id="Layer_1" xmlns="http://www.w3.org/2000/svg" xmlns:xlink="http://www.w3.org/1999/xlink" x="0px" y="0px"
	 viewBox="0 0 512 512" style="enable-background:new 0 0 512 512;" xml:space="preserve">
<g id="XMLID_1_">
	<path id="XMLID_6_" d="M256,0C114.5,0,0,114.5,0,256s114.5,256,256,256s256-114.5,256-256S397.5,0,256,0z M256,371.4
		c-63.3,0-115.4-51.2-115.4-115.4S192.7,140.6,256,140.6S371.4,192.7,371.4,256S319.3,371.4,256,371.4z M256,230.9
		c-14,0-26.1,11.2-26.1,26.1c0,14.9,11.2,26.1,26.1,26.1s26.1-11.2,26.1-26.1C282.1,242,270,229.9,256,230.9L256,230.9z"/>
</g>
</svg>
